<?xml version="1.0" encoding="UTF-8" standalone="no"?> <svg width="64" height="64" viewBox="0 0 64 64" fill="none" xmlns="http://www.w3.org/2000/svg">
<path d="M8.07002 56.8602L23.34 52.7002L44.45 30.4602L43.21 23.6102L38.71 20.5002L32.39 19.7002L10.38 41.5502L8.02002 57.0402L8.07002 56.8602Z" fill="#78B9EB"/>
<path d="M54 55.7501H17.4L22.66 54.5801C22.8925 54.5298 23.1049 54.4114 23.27 54.2401L55.17 22.3501C56.9629 20.5572 57.9701 18.1256 57.9701 15.5901C57.9701 13.0546 56.9629 10.623 55.17 8.83011C53.3771 7.03725 50.9455 6.03003 48.41 6.03003C45.8745 6.03003 43.4429 7.03725 41.65 8.83011L29.07 21.4201L9.76 40.7301C9.5887 40.8952 9.47035 41.1076 9.42 41.3401L6.14 56.1001C6.01674 56.2154 5.9185 56.3547 5.85141 56.5096C5.78431 56.6644 5.7498 56.8314 5.75 57.0001C5.75 57.3316 5.8817 57.6496 6.11612 57.884C6.35054 58.1184 6.66848 58.2501 7 58.2501H54C54.3315 58.2501 54.6495 58.1184 54.8839 57.884C55.1183 57.6496 55.25 57.3316 55.25 57.0001C55.25 56.6686 55.1183 56.3507 54.8839 56.1162C54.6495 55.8818 54.3315 55.7501 54 55.7501V55.7501ZM45.36 28.5901C45.36 28.4501 45.36 28.3201 45.36 28.1801C45.3616 26.8881 45.1004 25.6092 44.5924 24.4212C44.0843 23.2332 43.34 22.161 42.4047 21.2696C41.4693 20.3782 40.3625 19.6864 39.1515 19.2361C37.9404 18.7857 36.6505 18.5864 35.36 18.6501C36.6807 17.3364 38.4677 16.5988 40.3306 16.5985C42.1934 16.5982 43.9807 17.3351 45.3019 18.6484C46.6231 19.9617 47.3708 21.7445 47.3817 23.6073C47.3926 25.4701 46.6657 27.2615 45.36 28.5901V28.5901ZM43.42 10.5901C44.7461 9.26403 46.5446 8.51905 48.42 8.51905C49.3486 8.51905 50.2681 8.70194 51.126 9.0573C51.9839 9.41265 52.7634 9.9335 53.42 10.5901C54.0766 11.2467 54.5975 12.0262 54.9528 12.8841C55.3082 13.742 55.4911 14.6615 55.4911 15.5901C55.4911 16.5187 55.3082 17.4382 54.9528 18.2961C54.5975 19.154 54.0766 19.9335 53.42 20.5901L49.57 24.4401C49.57 24.2901 49.57 24.1401 49.57 23.9901C49.5701 22.6985 49.308 21.4203 48.7995 20.233C48.2909 19.0456 47.5466 17.974 46.6116 17.0829C45.6765 16.1918 44.5703 15.4999 43.3599 15.049C42.1495 14.5982 40.8601 14.3978 39.57 14.4601L43.42 10.5901ZM11.78 42.2401L30.78 23.1801C31.4366 22.5235 32.2161 22.0027 33.074 21.6473C33.9319 21.2919 34.8514 21.109 35.78 21.109C36.7086 21.109 37.6281 21.2919 38.486 21.6473C39.3439 22.0027 40.1234 22.5235 40.78 23.1801C41.4366 23.8367 41.9575 24.6162 42.3128 25.4741C42.6682 26.332 42.8511 27.2515 42.8511 28.1801C42.8511 29.1087 42.6682 30.0282 42.3128 30.8861C41.9575 31.744 41.4366 32.5235 40.78 33.1801V33.1801L21.78 52.1801L8.93 55.0701L11.78 42.2401Z" fill="#006DF0"/>
</svg>
